HIERARCHY
ROOT hip
{
  OFFSET 0 0 0
  CHANNELS 6 Xposition Yposition Zposition Zrotation Yrotation Xrotation
  JOINT abdomen
  {
    OFFSET 0 20.6881 -0.73152
    CHANNELS 3 Zrotation Xrotation Yrotation
    JOINT chest
    {
      OFFSET 0 11.7043 -0.48768
      CHANNELS 3 Zrotation Xrotation Yrotation
      JOINT neck
      {
        OFFSET 0 22.1894 -2.19456
        CHANNELS 3 Zrotation Xrotation Yrotation
        JOINT head
        {
          OFFSET -0.24384 7.07133 1.2192
          CHANNELS 3 Zrotation Xrotation Yrotation
          JOINT leftEye
          {
            OFFSET 4.14528 8.04674 8.04672
            CHANNELS 3 Zrotation Xrotation Yrotation
            End Site
            {
              OFFSET 1 0 0
            }
          }
          JOINT rightEye
          {
            OFFSET -3.6576 8.04674 8.04672
            CHANNELS 3 Zrotation Xrotation Yrotation
            End Site
            {
              OFFSET 1 0 0
            }
          }
        }
      }
      JOINT rCollar
      {
        OFFSET -2.68224 19.2634 -4.8768
        CHANNELS 3 Zrotation Xrotation Yrotation
        JOINT rShldr
        {
          OFFSET -8.77824 -1.95073 1.46304
          CHANNELS 3 Zrotation Xrotation Yrotation
          JOINT rForeArm
          {
            OFFSET -28.1742 -1.7115 0.48768
            CHANNELS 3 Zrotation Xrotation Yrotation
            JOINT rHand
            {
              OFFSET -22.5879 0.773209 7.07136
              CHANNELS 3 Zrotation Xrotation Yrotation
              JOINT rThumb1
              {
                OFFSET -1.2192 -0.487915 3.41376
                CHANNELS 3 Zrotation Xrotation Yrotation
                JOINT rThumb2
                {
                  OFFSET -3.37035 -0.52449 3.41376
                  CHANNELS 3 Zrotation Xrotation Yrotation
                  End Site
                  {
                    OFFSET -1.78271 -1.18214 1.43049
                  }
                }
              }
              JOINT rIndex1
              {
                OFFSET -7.75947 0.938293 5.60832
                CHANNELS 3 Zrotation Xrotation Yrotation
                JOINT rIndex2
                {
                  OFFSET -2.54057 -0.884171 1.56538
                  CHANNELS 3 Zrotation Xrotation Yrotation
                  End Site
                  {
                    OFFSET -1.62519 -0.234802 1.16502
                  }
                }
              }
              JOINT rMid1
              {
                OFFSET -8.24714 1.18213 3.41376
                CHANNELS 3 Zrotation Xrotation Yrotation
                JOINT rMid2
                {
                  OFFSET -3.10165 -0.590103 1.0647
                  CHANNELS 3 Zrotation Xrotation Yrotation
                  End Site
                  {
                    OFFSET -2.48547 -0.328903 0.83742
                  }
                }
              }
              JOINT rRing1
              {
                OFFSET -8.82822 0.546677 1.51678
                CHANNELS 3 Zrotation Xrotation Yrotation
                JOINT rRing2
                {
                  OFFSET -2.60934 -0.819778 -0.0198488
                  CHANNELS 3 Zrotation Xrotation Yrotation
                  End Site
                  {
                    OFFSET -2.33842 -0.294052 0.168128
                  }
                }
              }
              JOINT rPinky1
              {
                OFFSET -8.27202 -0.0477905 -0.4584
                CHANNELS 3 Zrotation Xrotation Yrotation
                JOINT rPinky2
                {
                  OFFSET -1.82734 -0.647385 -0.700984
                  CHANNELS 3 Zrotation Xrotation Yrotation
                  End Site
                  {
                    OFFSET -1.69225 -0.51767 -0.607171
                  }
                }
              }
            }
          }
        }
      }
      JOINT lCollar
      {
        OFFSET 2.68224 19.2634 -4.8768
        CHANNELS 3 Zrotation Xrotation Yrotation
        JOINT lShldr
        {
          OFFSET 8.77824 -1.95073 1.46304
          CHANNELS 3 Zrotation Xrotation Yrotation
          JOINT lForeArm
          {
            OFFSET 28.1742 -1.7115 0.48768
            CHANNELS 3 Zrotation Xrotation Yrotation
            JOINT lHand
            {
              OFFSET 22.5879 0.773209 7.07136
              CHANNELS 3 Zrotation Xrotation Yrotation
              JOINT lThumb1
              {
                OFFSET 1.2192 -0.487915 3.41376
                CHANNELS 3 Zrotation Xrotation Yrotation
                JOINT lThumb2
                {
                  OFFSET 3.37035 -0.52449 3.41376
                  CHANNELS 3 Zrotation Xrotation Yrotation
                  End Site
                  {
                    OFFSET 1.78271 -1.18214 1.43049
                  }
                }
              }
              JOINT lIndex1
              {
                OFFSET 7.75947 0.938293 5.60832
                CHANNELS 3 Zrotation Xrotation Yrotation
                JOINT lIndex2
                {
                  OFFSET 2.54057 -0.884171 1.56538
                  CHANNELS 3 Zrotation Xrotation Yrotation
                  End Site
                  {
                    OFFSET 1.62519 -0.234802 1.16502
                  }
                }
              }
              JOINT lMid1
              {
                OFFSET 8.24714 1.18213 3.41376
                CHANNELS 3 Zrotation Xrotation Yrotation
                JOINT lMid2
                {
                  OFFSET 3.10165 -0.590103 1.0647
                  CHANNELS 3 Zrotation Xrotation Yrotation
                  End Site
                  {
                    OFFSET 2.48547 -0.328903 0.83742
                  }
                }
              }
              JOINT lRing1
              {
                OFFSET 8.82822 0.546677 1.51678
                CHANNELS 3 Zrotation Xrotation Yrotation
                JOINT lRing2
                {
                  OFFSET 2.60934 -0.819778 -0.0198488
                  CHANNELS 3 Zrotation Xrotation Yrotation
                  End Site
                  {
                    OFFSET 2.33842 -0.294052 0.168128
                  }
                }
              }
              JOINT lPinky1
              {
                OFFSET 8.27202 -0.0477905 -0.4584
                CHANNELS 3 Zrotation Xrotation Yrotation
                JOINT lPinky2
                {
                  OFFSET 1.82734 -0.647385 -0.700984
                  CHANNELS 3 Zrotation Xrotation Yrotation
                  End Site
                  {
                    OFFSET 1.69225 -0.51767 -0.607171
                  }
                }
              }
            }
          }
        }
      }
    }
  }
  JOINT rButtock
  {
    OFFSET -8.77824 4.35084 1.2192
    CHANNELS 3 Zrotation Xrotation Yrotation
    JOINT rThigh
    {
      OFFSET 0 -1.70687 -2.19456
      CHANNELS 3 Zrotation Xrotation Yrotation
      JOINT rShin
      {
        OFFSET 0 -36.8199 0.73152
        CHANNELS 3 Zrotation Xrotation Yrotation
        JOINT rFoot
        {
          OFFSET 0.73152 -45.1104 -5.12064
          CHANNELS 3 Zrotation Xrotation Yrotation
          End Site
          {
            OFFSET -1.1221 -3.69964 12.103
          }
        }
      }
    }
  }
  JOINT lButtock
  {
    OFFSET 8.77824 4.35084 1.2192
    CHANNELS 3 Zrotation Xrotation Yrotation
    JOINT lThigh
    {
      OFFSET 0 -1.70687 -2.19456
      CHANNELS 3 Zrotation Xrotation Yrotation
      JOINT lShin
      {
        OFFSET 0 -36.8199 0.73152
        CHANNELS 3 Zrotation Xrotation Yrotation
        JOINT lFoot
        {
          OFFSET -0.73152 -45.1104 -5.12064
          CHANNELS 3 Zrotation Xrotation Yrotation
          End Site
          {
            OFFSET 1.1221 -3.69964 12.103
          }
        }
      }
    }
  }
}
MOTION
Frames:	8
Frame Time:	0.00833333
-172.646 85.4571 13.4864 0.0 0.0 0.0 1.92987 -0.00172184 0.0523823 0.532079 0.00507098 0.0921221 -9.31614e-15 -1.59028e-15 -7.20594e-16 -2.76124e-14 3.18055e-15 -2.08879e-15 -0.0 0.0 0.0 -0.0 0.0 0.0 -4.42421e-15 3.88251e-17 -1.98785e-16 -9.19073e-14 7.33018e-16 -6.95746e-15 -1.62099e-12 5.20021e-13 -1.27222e-13 -1.86073e-11 -3.3694e-13 -1.46624e-12 -4.38894e-11 3.98595e-13 -3.43182e-12 -7.58006e-11 6.93361e-13 -5.94287e-12 -4.38841e-11 4.01147e-13 -3.44772e-12 7.73091 5.47488 0.417314 -4.38885e-11 3.98961e-13 -3.435e-12 2.90554 0.965183 0.102902 -4.38794e-11 3.99259e-13 -3.43897e-12 10.2786 0.731801 0.0259123 -4.38972e-11 4.00352e-13 -3.43182e-12 2.22167 -0.733487 -0.20892 -4.42202e-15 4.25135e-17 -4.96962e-16 -9.77831e-14 1.12438e-15 -8.34896e-15 -1.63212e-12 -4.5641e-13 -1.20861e-13 -1.86334e-11 6.67121e-13 -1.46306e-12 -4.39584e-11 4.54761e-13 -3.43818e-12 -7.59059e-11 7.85597e-13 -5.93651e-12 -4.39672e-11 4.58e-13 -3.42546e-12 -7.73091 5.47488 -0.417314 -4.39591e-11 4.55416e-13 -3.435e-12 -2.90554 0.965183 -0.102902 -4.39728e-11 4.55316e-13 -3.43977e-12 -10.2786 0.731801 -0.0259123 -4.39596e-11 4.54422e-13 -3.44772e-12 -2.22167 -0.733487 0.20892 -2.03217e-16 0.0 -3.88251e-19 1.95949 -7.26115 -0.192017 0.00412061 7.58527 0.107062 -0.521298 -0.330665 0.0523293 2.03217e-16 0.0 3.88251e-19 0.976691 -1.92613 0.000869633 0.00898707 -2.0786 0.074062 0.487861 3.99809 -0.136735
-166.056 85.4016 5.15354 17.9899 85.1079 18.7208 1.08342 1.03753 0.837011 0.923515 -0.483582 0.338893 1.27487 -1.17403 0.938056 -1.29828 1.79356 1.62412 -0.0 0.0 0.0 -0.0 0.0 0.0 -6.29015e-15 5.37842e-13 -4.57671e-15 -4.25668 -0.922386 -0.0228598 0.413199 0.183797 -0.60055 -0.000854916 -0.124974 -0.0175376 -1.75857e-10 -5.80474e-10 -4.65054e-11 -3.04003e-10 -1.00497e-09 -8.04728e-11 -1.75854e-10 -5.80468e-10 -4.65186e-11 7.73091 5.47488 0.417314 -1.75857e-10 -5.8047e-10 -4.65088e-11 2.90554 0.965183 0.102902 -1.75851e-10 -5.80469e-10 -4.651e-11 10.2786 0.731801 0.0259123 -1.75865e-10 -5.80471e-10 -4.65029e-11 2.22167 -0.733487 -0.20892 -6.30903e-15 5.37845e-13 -4.90672e-15 4.27202 -0.85149 0.0666965 -0.30818 0.123988 0.472216 0.00417292 -0.276535 0.0385802 -1.12235e-10 5.47109e-10 -5.30882e-11 -1.94059e-10 9.46968e-10 -9.20639e-11 -1.12241e-10 5.47112e-10 -5.30765e-11 -7.73091 5.47488 -0.417314 -1.12235e-10 5.47113e-10 -5.30858e-11 -2.90554 0.965183 -0.102902 -1.12247e-10 5.47109e-10 -5.30889e-11 -10.2786 0.731801 -0.0259123 -1.12234e-10 5.47113e-10 -5.30969e-11 -2.22167 -0.733487 0.20892 -2.03217e-16 0.0 -3.88251e-19 -0.0500013 -5.25234 -1.11603 0.00278115 8.04451 0.116329 -0.493565 -4.28116 -0.355261 2.03217e-16 0.0 3.88251e-19 2.20573 0.805892 0.0214633 0.0056734 -2.45376 0.0580579 0.613652 0.796709 2.87033
-166.072 85.3809 5.21852 14.2537 85.1744 15.0402 0.152271 2.13368 1.66893 1.34074 -0.993161 0.600117 2.6627 -2.41453 1.92849 -2.77843 3.67741 3.34094 -0.0 0.0 0.0 -0.0 0.0 0.0 -8.98415e-15 1.20774e-12 -1.01007e-14 -10.0195 -2.4597 -0.0610077 1.11042 0.489961 -1.60152 -0.00244979 -0.333263 -0.0467676 -3.27564e-10 -1.22237e-09 -8.98982e-11 -5.66279e-10 -2.11629e-09 -1.55543e-10 -3.27563e-10 -1.22236e-09 -8.99085e-11 7.73091 5.47488 0.417314 -3.27565e-10 -1.22237e-09 -8.9902e-11 2.90554 0.965183 0.102902 -3.27561e-10 -1.22237e-09 -8.99002e-11 10.2786 0.731801 0.0259123 -3.27571e-10 -1.22237e-09 -8.98932e-11 2.22167 -0.733487 -0.20892 -9.0251e-15 1.20775e-12 -1.04673e-14 10.0631 -2.27063 0.177977 -0.826354 0.330565 1.25926 0.0119554 -0.737427 0.102888 -1.74752e-10 1.14516e-09 -1.18926e-10 -3.02399e-10 1.98213e-09 -2.06317e-10 -1.74755e-10 1.14516e-09 -1.18915e-10 -7.73091 5.47488 -0.417314 -1.74751e-10 1.14517e-09 -1.18924e-10 -2.90554 0.965183 -0.102902 -1.74761e-10 1.14516e-09 -1.18925e-10 -10.2786 0.731801 -0.0259123 -1.74748e-10 1.14517e-09 -1.18933e-10 -2.22167 -0.733487 0.20892 -2.03217e-16 0.0 -3.88251e-19 -2.11034 -3.12675 -2.08903 0.00116546 8.52875 0.126178 -0.525971 -8.45811 -0.792998 2.03217e-16 0.0 3.88251e-19 3.49384 3.69532 0.0321462 0.00191116 -2.8538 0.0411469 1.11255 -2.57372 6.06322
-166.081 85.3729 5.21831 14.0477 85.1995 14.8758 -0.694966 3.11361 2.40941 1.71902 -1.46076 0.832669 3.94008 -3.51831 2.8189 -4.2006 5.36335 4.89144 -0.0 0.0 0.0 -0.0 0.0 0.0 -1.0022e-14 1.61345e-12 -1.33325e-14 -12.7723 -2.76716 -0.0686504 1.25115 0.551148 -1.80172 -0.00279427 -0.37492 -0.0526138 -4.39793e-10 -1.74222e-09 -1.32653e-10 -7.60406e-10 -3.0163e-09 -2.29533e-10 -4.39793e-10 -1.74221e-09 -1.3266e-10 7.73091 5.47488 0.417314 -4.39795e-10 -1.74221e-09 -1.32656e-10 2.90554 0.965183 0.102902 -4.39793e-10 -1.74221e-09 -1.32652e-10 10.2786 0.731801 0.0259123 -4.39799e-10 -1.74221e-09 -1.32645e-10 2.22167 -0.733487 -0.20892 -1.00831e-14 1.61345e-12 -1.37262e-14 12.822 -2.55446 0.200266 -0.93067 0.371862 1.41668 0.0136361 -0.829604 0.115752 -2.48788e-10 1.64042e-09 -1.52388e-10 -4.30365e-10 2.83933e-09 -2.64319e-10 -2.48789e-10 1.64042e-09 -1.52379e-10 -7.73091 5.47488 -0.417314 -2.48786e-10 1.64043e-09 -1.52388e-10 -2.90554 0.965183 -0.102902 -2.48796e-10 1.64042e-09 -1.52387e-10 -10.2786 0.731801 -0.0259123 -2.48782e-10 1.64043e-09 -1.52395e-10 -2.22167 -0.733487 0.20892 -2.03217e-16 0.0 -3.88251e-19 -3.87476 -1.23597 -2.95376 -0.000349208 8.96298 0.13495 -0.609954 -12.1798 -1.19436 2.03217e-16 0.0 3.88251e-19 4.6579 6.26993 0.0630224 -0.00158356 -3.2041 0.0260281 1.87204 -5.53565 8.92492
-166.094 85.367 5.21928 14.0231 85.2058 14.9145 -1.27204 3.80532 2.91831 1.99124 -1.82352 0.993337 4.86027 -4.28383 3.45476 -5.2655 6.57059 6.00851 -0.0 0.0 0.0 -0.0 0.0 0.0 -6.91967e-15 1.35866e-12 -1.08338e-14 -8.0 4.72161e-09 2.60833e-10 -1.86808e-11 -1.32222e-10 -6.27205e-12 -1.88829e-10 -7.59373e-10 -7.30414e-11 -4.53328e-10 -1.95692e-09 -1.73811e-10 -7.84162e-10 -3.38805e-09 -3.00824e-10 -4.53329e-10 -1.95691e-09 -1.73817e-10 7.73091 5.47488 0.417314 -4.5333e-10 -1.95691e-09 -1.73814e-10 2.90554 0.965183 0.102902 -4.53329e-10 -1.95691e-09 -1.73809e-10 10.2786 0.731801 0.0259123 -4.53334e-10 -1.95692e-09 -1.73801e-10 2.22167 -0.733487 -0.20892 -6.99572e-15 1.35866e-12 -1.12313e-14 8.0 4.72161e-09 -2.60833e-10 -9.99176e-12 1.26846e-10 -4.16653e-12 -1.51866e-10 7.30305e-10 -4.35609e-11 -3.51625e-10 1.87869e-09 -1.04914e-10 -6.07398e-10 3.25166e-09 -1.81692e-10 -3.51624e-10 1.87869e-09 -1.04904e-10 -7.73091 5.47488 -0.417314 -3.51622e-10 1.8787e-09 -1.04914e-10 -2.90554 0.965183 -0.102902 -3.5163e-10 1.87869e-09 -1.04912e-10 -10.2786 0.731801 -0.0259123 -3.51616e-10 1.8787e-09 -1.0492e-10 -2.22167 -0.733487 0.20892 -2.03217e-16 0.0 -3.88251e-19 -5.03661 0.0702118 -3.55171 -0.00129238 9.27218 0.140969 -0.700152 -14.7657 -1.482 2.03217e-16 0.0 3.88251e-19 5.5109 8.05752 0.144508 -0.00395666 -3.43004 0.0154074 2.56729 -7.55327 10.9017
-166.096 85.3666 5.24904 12.6173 85.2084 13.512 -1.43144 4.09445 3.0949 2.11394 -2.04393 1.05172 5.25096 -4.58072 3.73631 -5.74951 7.13232 6.51632 -0.0 0.0 0.0 -0.0 0.0 0.0 4.23488e-15 -1.31833e-13 2.44598e-15 9.33782 8.03916 0.213291 -3.43734 -1.59792 5.22915 0.00355576 1.02405 0.143774 -2.64029e-10 -1.6921e-09 -2.52067e-10 -4.58015e-10 -2.92966e-09 -4.36683e-10 -2.6403e-10 -1.69209e-09 -2.52074e-10 7.73091 5.47488 0.417314 -2.64031e-10 -1.69209e-09 -2.52068e-10 2.90554 0.965183 0.102902 -2.6403e-10 -1.69209e-09 -2.52063e-10 10.2786 0.731801 0.0259123 -2.64035e-10 -1.6921e-09 -2.52056e-10 2.22167 -0.733487 -0.20892 4.14929e-15 -1.31833e-13 2.0818e-15 -9.4205 7.3731 -0.587506 2.58555 -1.0719 -4.09354 -0.0205253 2.39473 -0.334394 -5.84548e-10 1.75312e-09 1.29724e-10 -1.00752e-09 3.03402e-09 2.26391e-10 -5.84546e-10 1.75312e-09 1.29736e-10 -7.73091 5.47488 -0.417314 -5.84545e-10 1.75313e-09 1.29724e-10 -2.90554 0.965183 -0.102902 -5.84552e-10 1.75312e-09 1.29726e-10 -10.2786 0.731801 -0.0259123 -5.84539e-10 1.75313e-09 1.29719e-10 -2.22167 -0.733487 0.20892 -2.03217e-16 0.0 -3.88251e-19 -5.40148 0.553992 -3.77703 -0.00123206 9.41044 0.143087 -0.740942 -15.7608 -1.58992 2.03217e-16 0.0 3.88251e-19 5.9508 8.73617 0.337652 -0.00431163 -3.47027 0.0110572 2.84562 -8.29948 11.5514
-166.093 85.3729 5.26961 11.7278 85.1647 12.5369 -1.28687 4.09649 3.0338 2.12862 -2.16248 1.03708 5.25444 -4.54352 3.76361 -5.79401 7.23591 6.58456 -0.0 0.0 0.0 -0.0 0.0 0.0 2.10336e-14 -2.49016e-12 2.32951e-14 35.4477 19.7972 0.555379 -7.94329 -3.85269 12.901 -0.000546371 2.5086 0.352497 6.70709e-11 -1.08726e-09 -3.54949e-10 1.12759e-10 -1.88263e-09 -6.15407e-10 6.70721e-11 -1.08725e-09 -3.54957e-10 7.73091 5.47488 0.417314 6.707e-11 -1.08725e-09 -3.54947e-10 2.90554 0.965183 0.102902 6.70729e-11 -1.08725e-09 -3.54944e-10 10.2786 0.731801 0.0259123 6.70647e-11 -1.08726e-09 -3.54936e-10 2.22167 -0.733487 -0.20892 2.09424e-14 -2.49016e-12 2.29907e-14 -35.4813 18.143 -1.51027 6.09022 -2.60446 -10.0852 -8.25139e-06 5.89384 -0.826722 -9.06115e-10 1.36786e-09 4.94534e-10 -1.55963e-09 2.36676e-09 8.60821e-10 -9.06114e-10 1.36786e-09 4.94549e-10 -7.73091 5.47488 -0.417314 -9.06114e-10 1.36787e-09 4.94534e-10 -2.90554 0.965183 -0.102902 -9.06119e-10 1.36786e-09 4.94537e-10 -10.2786 0.731801 -0.0259123 -9.06108e-10 1.36787e-09 4.9453e-10 -2.22167 -0.733487 0.20892 -2.03217e-16 0.0 -3.88251e-19 -5.21142 0.451466 -3.73523 -0.00042426 9.42642 0.142414 -0.732904 -15.6202 -1.56485 2.03217e-16 0.0 3.88251e-19 6.09806 8.62294 0.608064 -0.00319478 -3.37841 0.01119 2.75616 -8.15483 11.2397
-166.105 85.3669 5.31678 9.2433 85.1635 10.0571 -1.04092 3.98472 2.88728 2.09537 -2.23333 0.995607 5.092 -4.36882 3.68093 -5.63737 7.13526 6.46068 -0.0 0.0 0.0 -0.0 0.0 0.0 3.64806e-14 -4.698e-12 4.27589e-14 61.6533 31.4932 0.957486 -11.8338 -5.88537 20.5992 -0.0157784 4.07176 0.573001 3.51434e-10 -4.30131e-10 -4.04749e-10 6.03172e-10 -7.45056e-10 -7.01924e-10 3.51437e-10 -4.30127e-10 -4.04759e-10 7.73091 5.47488 0.417314 3.51434e-10 -4.3013e-10 -4.04744e-10 2.90554 0.965183 0.102902 3.51439e-10 -4.30128e-10 -4.04743e-10 10.2786 0.731801 0.0259123 3.51428e-10 -4.30129e-10 -4.04734e-10 2.22167 -0.733487 -0.20892 3.6388e-14 -4.698e-12 4.25174e-14 -61.3954 28.9073 -2.60639 9.27606 -4.05112 -16.0975 0.0815386 9.39413 -1.32877 -1.11951e-09 8.85221e-10 7.93249e-10 -1.92551e-09 1.53103e-09 1.38007e-09 -1.11951e-09 8.85223e-10 7.93267e-10 -7.73091 5.47488 -0.417314 -1.11951e-09 8.85221e-10 7.93249e-10 -2.90554 0.965183 -0.102902 -1.11952e-09 8.85218e-10 7.93252e-10 -10.2786 0.731801 -0.0259123 -1.11951e-09 8.85222e-10 7.93246e-10 -2.22167 -0.733487 0.20892 -2.03217e-16 0.0 -3.88251e-19 -4.8212 0.124845 -3.58269 0.000585162 9.38689 0.140646 -0.707508 -15.0288 -1.49334 2.03217e-16 0.0 3.88251e-19 6.09759 8.20417 0.84336 -0.00189257 -3.25229 0.0131745 2.53918 -7.6673 10.6034
